<mxfile host="app.diagrams.net" modified="2020-11-02T10:38:43.885Z" agent="5.0 (Windows)" etag="VIiyUNoVWscx3SYYwlPn" version="13.7.1" type="github">
  <diagram name="Page-1" id="9f46799a-70d6-7492-0946-bef42562c5a5">
    <mxGraphModel dx="3055" dy="1173" grid="1" gridSize="10" guides="1" tooltips="1" connect="1" arrows="1" fold="1" page="1" pageScale="1" pageWidth="1100" pageHeight="850" background="#ffffff" math="0" shadow="0">
      <root>
        <mxCell id="0" />
        <mxCell id="1" parent="0" />
        <mxCell id="UbxJVFyxVuAruex3Ilno-1" value="&lt;font style=&quot;font-size: 36px&quot;&gt;Book&lt;/font&gt;" style="rounded=0;whiteSpace=wrap;html=1;" vertex="1" parent="1">
          <mxGeometry x="170" y="210" width="180" height="170" as="geometry" />
        </mxCell>
        <mxCell id="UbxJVFyxVuAruex3Ilno-20" value="" style="edgeStyle=none;rounded=0;orthogonalLoop=1;jettySize=auto;html=1;entryX=0.5;entryY=0;entryDx=0;entryDy=0;" edge="1" parent="1" source="UbxJVFyxVuAruex3Ilno-5" target="UbxJVFyxVuAruex3Ilno-1">
          <mxGeometry relative="1" as="geometry">
            <Array as="points">
              <mxPoint x="260" y="160" />
            </Array>
          </mxGeometry>
        </mxCell>
        <mxCell id="UbxJVFyxVuAruex3Ilno-5" value="&lt;font style=&quot;font-size: 24px&quot;&gt;Author&lt;/font&gt;" style="ellipse;whiteSpace=wrap;html=1;" vertex="1" parent="1">
          <mxGeometry x="110" y="30" width="120" height="80" as="geometry" />
        </mxCell>
        <mxCell id="UbxJVFyxVuAruex3Ilno-18" value="" style="edgeStyle=none;rounded=0;orthogonalLoop=1;jettySize=auto;html=1;entryX=1;entryY=0.25;entryDx=0;entryDy=0;" edge="1" parent="1" source="UbxJVFyxVuAruex3Ilno-7" target="UbxJVFyxVuAruex3Ilno-1">
          <mxGeometry relative="1" as="geometry">
            <mxPoint x="480" y="199.9999999999999" as="targetPoint" />
            <Array as="points" />
          </mxGeometry>
        </mxCell>
        <mxCell id="UbxJVFyxVuAruex3Ilno-7" value="&lt;font style=&quot;font-size: 24px&quot;&gt;description&lt;/font&gt;" style="ellipse;whiteSpace=wrap;html=1;" vertex="1" parent="1">
          <mxGeometry x="420" y="30" width="120" height="80" as="geometry" />
        </mxCell>
        <mxCell id="UbxJVFyxVuAruex3Ilno-21" value="" style="edgeStyle=none;rounded=0;orthogonalLoop=1;jettySize=auto;html=1;entryX=0.25;entryY=0;entryDx=0;entryDy=0;" edge="1" parent="1" source="UbxJVFyxVuAruex3Ilno-8" target="UbxJVFyxVuAruex3Ilno-1">
          <mxGeometry relative="1" as="geometry">
            <Array as="points">
              <mxPoint x="215" y="160" />
            </Array>
          </mxGeometry>
        </mxCell>
        <mxCell id="UbxJVFyxVuAruex3Ilno-8" value="&lt;font style=&quot;font-size: 24px&quot;&gt;Chapters&lt;/font&gt;" style="ellipse;whiteSpace=wrap;html=1;" vertex="1" parent="1">
          <mxGeometry x="10" y="80" width="120" height="80" as="geometry" />
        </mxCell>
        <mxCell id="UbxJVFyxVuAruex3Ilno-22" value="" style="edgeStyle=none;rounded=0;orthogonalLoop=1;jettySize=auto;html=1;entryX=0;entryY=0;entryDx=0;entryDy=0;" edge="1" parent="1" source="UbxJVFyxVuAruex3Ilno-9" target="UbxJVFyxVuAruex3Ilno-1">
          <mxGeometry relative="1" as="geometry" />
        </mxCell>
        <mxCell id="UbxJVFyxVuAruex3Ilno-9" value="&lt;font style=&quot;font-size: 24px&quot;&gt;ISBN&lt;/font&gt;" style="ellipse;whiteSpace=wrap;html=1;" vertex="1" parent="1">
          <mxGeometry x="-40" y="170" width="120" height="80" as="geometry" />
        </mxCell>
        <mxCell id="UbxJVFyxVuAruex3Ilno-19" value="" style="edgeStyle=none;rounded=0;orthogonalLoop=1;jettySize=auto;html=1;entryX=0.75;entryY=0;entryDx=0;entryDy=0;" edge="1" parent="1" source="UbxJVFyxVuAruex3Ilno-6" target="UbxJVFyxVuAruex3Ilno-1">
          <mxGeometry relative="1" as="geometry">
            <Array as="points">
              <mxPoint x="330" y="160" />
            </Array>
          </mxGeometry>
        </mxCell>
        <mxCell id="UbxJVFyxVuAruex3Ilno-6" value="&lt;font style=&quot;font-size: 24px&quot;&gt;Title&lt;/font&gt;" style="ellipse;whiteSpace=wrap;html=1;" vertex="1" parent="1">
          <mxGeometry x="270" y="30" width="120" height="80" as="geometry" />
        </mxCell>
        <mxCell id="UbxJVFyxVuAruex3Ilno-28" value="" style="edgeStyle=none;rounded=0;orthogonalLoop=1;jettySize=auto;html=1;entryX=1;entryY=0.25;entryDx=0;entryDy=0;" edge="1" parent="1" source="UbxJVFyxVuAruex3Ilno-23" target="UbxJVFyxVuAruex3Ilno-1">
          <mxGeometry relative="1" as="geometry">
            <mxPoint x="570" y="270" as="targetPoint" />
            <Array as="points">
              <mxPoint x="570" y="253" />
            </Array>
          </mxGeometry>
        </mxCell>
        <mxCell id="UbxJVFyxVuAruex3Ilno-23" value="&lt;font style=&quot;font-size: 24px&quot;&gt;Start reading&lt;/font&gt;" style="ellipse;whiteSpace=wrap;html=1;" vertex="1" parent="1">
          <mxGeometry x="510" y="110" width="120" height="80" as="geometry" />
        </mxCell>
        <mxCell id="UbxJVFyxVuAruex3Ilno-29" style="edgeStyle=none;rounded=0;orthogonalLoop=1;jettySize=auto;html=1;exitX=0.5;exitY=1;exitDx=0;exitDy=0;entryX=1;entryY=0.5;entryDx=0;entryDy=0;" edge="1" parent="1" source="UbxJVFyxVuAruex3Ilno-24" target="UbxJVFyxVuAruex3Ilno-1">
          <mxGeometry relative="1" as="geometry">
            <mxPoint x="570" y="260" as="targetPoint" />
            <Array as="points">
              <mxPoint x="670" y="295" />
            </Array>
          </mxGeometry>
        </mxCell>
        <mxCell id="UbxJVFyxVuAruex3Ilno-24" value="&lt;font style=&quot;font-size: 24px&quot;&gt;End reading&lt;/font&gt;" style="ellipse;whiteSpace=wrap;html=1;" vertex="1" parent="1">
          <mxGeometry x="610" y="30" width="120" height="80" as="geometry" />
        </mxCell>
        <mxCell id="UbxJVFyxVuAruex3Ilno-31" style="edgeStyle=none;rounded=0;orthogonalLoop=1;jettySize=auto;html=1;exitX=0.5;exitY=1;exitDx=0;exitDy=0;entryX=1;entryY=1;entryDx=0;entryDy=0;" edge="1" parent="1" source="UbxJVFyxVuAruex3Ilno-25" target="UbxJVFyxVuAruex3Ilno-1">
          <mxGeometry relative="1" as="geometry">
            <mxPoint x="750" y="390" as="targetPoint" />
            <Array as="points">
              <mxPoint x="850" y="380" />
            </Array>
          </mxGeometry>
        </mxCell>
        <mxCell id="UbxJVFyxVuAruex3Ilno-25" value="&lt;font style=&quot;font-size: 24px&quot;&gt;Place&lt;/font&gt;" style="ellipse;whiteSpace=wrap;html=1;" vertex="1" parent="1">
          <mxGeometry x="790" y="30" width="120" height="80" as="geometry" />
        </mxCell>
        <mxCell id="UbxJVFyxVuAruex3Ilno-30" style="edgeStyle=none;rounded=0;orthogonalLoop=1;jettySize=auto;html=1;exitX=0.5;exitY=1;exitDx=0;exitDy=0;entryX=1;entryY=0.75;entryDx=0;entryDy=0;" edge="1" parent="1" source="UbxJVFyxVuAruex3Ilno-26" target="UbxJVFyxVuAruex3Ilno-1">
          <mxGeometry relative="1" as="geometry">
            <mxPoint x="670" y="260" as="targetPoint" />
            <Array as="points">
              <mxPoint x="760" y="338" />
            </Array>
          </mxGeometry>
        </mxCell>
        <mxCell id="UbxJVFyxVuAruex3Ilno-26" value="&lt;font style=&quot;font-size: 24px&quot;&gt;Bought Date&lt;/font&gt;" style="ellipse;whiteSpace=wrap;html=1;" vertex="1" parent="1">
          <mxGeometry x="700" y="110" width="120" height="80" as="geometry" />
        </mxCell>
        <mxCell id="UbxJVFyxVuAruex3Ilno-35" style="edgeStyle=none;rounded=0;orthogonalLoop=1;jettySize=auto;html=1;exitX=1;exitY=0.5;exitDx=0;exitDy=0;entryX=0;entryY=0.25;entryDx=0;entryDy=0;" edge="1" parent="1" source="UbxJVFyxVuAruex3Ilno-32" target="UbxJVFyxVuAruex3Ilno-1">
          <mxGeometry relative="1" as="geometry" />
        </mxCell>
        <mxCell id="UbxJVFyxVuAruex3Ilno-32" value="&lt;font style=&quot;font-size: 24px&quot;&gt;Pages&lt;/font&gt;" style="ellipse;whiteSpace=wrap;html=1;" vertex="1" parent="1">
          <mxGeometry x="-140" y="230" width="120" height="80" as="geometry" />
        </mxCell>
        <mxCell id="UbxJVFyxVuAruex3Ilno-36" style="edgeStyle=none;rounded=0;orthogonalLoop=1;jettySize=auto;html=1;exitX=1;exitY=0.5;exitDx=0;exitDy=0;entryX=0;entryY=0.5;entryDx=0;entryDy=0;" edge="1" parent="1" source="UbxJVFyxVuAruex3Ilno-33" target="UbxJVFyxVuAruex3Ilno-1">
          <mxGeometry relative="1" as="geometry" />
        </mxCell>
        <mxCell id="UbxJVFyxVuAruex3Ilno-33" value="&lt;font style=&quot;font-size: 24px&quot;&gt;Publishing Date&lt;/font&gt;" style="ellipse;whiteSpace=wrap;html=1;" vertex="1" parent="1">
          <mxGeometry x="-240" y="300" width="140" height="90" as="geometry" />
        </mxCell>
        <mxCell id="UbxJVFyxVuAruex3Ilno-37" style="edgeStyle=none;rounded=0;orthogonalLoop=1;jettySize=auto;html=1;exitX=1;exitY=0.5;exitDx=0;exitDy=0;entryX=0;entryY=0.75;entryDx=0;entryDy=0;" edge="1" parent="1" source="UbxJVFyxVuAruex3Ilno-34" target="UbxJVFyxVuAruex3Ilno-1">
          <mxGeometry relative="1" as="geometry" />
        </mxCell>
        <mxCell id="UbxJVFyxVuAruex3Ilno-34" value="&lt;font style=&quot;font-size: 24px&quot;&gt;Price&lt;/font&gt;" style="ellipse;whiteSpace=wrap;html=1;" vertex="1" parent="1">
          <mxGeometry x="-140" y="380" width="120" height="80" as="geometry" />
        </mxCell>
        <mxCell id="UbxJVFyxVuAruex3Ilno-39" style="edgeStyle=none;rounded=0;orthogonalLoop=1;jettySize=auto;html=1;exitX=1;exitY=0.5;exitDx=0;exitDy=0;entryX=0;entryY=1;entryDx=0;entryDy=0;" edge="1" parent="1" source="UbxJVFyxVuAruex3Ilno-38" target="UbxJVFyxVuAruex3Ilno-1">
          <mxGeometry relative="1" as="geometry">
            <Array as="points">
              <mxPoint x="-20" y="470" />
            </Array>
          </mxGeometry>
        </mxCell>
        <mxCell id="UbxJVFyxVuAruex3Ilno-38" value="&lt;font style=&quot;font-size: 24px&quot;&gt;Genres&lt;/font&gt;" style="ellipse;whiteSpace=wrap;html=1;" vertex="1" parent="1">
          <mxGeometry x="-320" y="430" width="120" height="80" as="geometry" />
        </mxCell>
        <mxCell id="UbxJVFyxVuAruex3Ilno-41" style="edgeStyle=none;rounded=0;orthogonalLoop=1;jettySize=auto;html=1;exitX=1;exitY=0.5;exitDx=0;exitDy=0;entryX=0.25;entryY=1;entryDx=0;entryDy=0;" edge="1" parent="1" source="UbxJVFyxVuAruex3Ilno-40" target="UbxJVFyxVuAruex3Ilno-1">
          <mxGeometry relative="1" as="geometry">
            <mxPoint x="190" y="519.6666666666667" as="targetPoint" />
            <Array as="points">
              <mxPoint x="215" y="520" />
            </Array>
          </mxGeometry>
        </mxCell>
        <mxCell id="UbxJVFyxVuAruex3Ilno-40" value="&lt;font style=&quot;font-size: 24px&quot;&gt;Cover Size&lt;/font&gt;" style="ellipse;whiteSpace=wrap;html=1;" vertex="1" parent="1">
          <mxGeometry x="-130" y="480" width="120" height="80" as="geometry" />
        </mxCell>
        <mxCell id="UbxJVFyxVuAruex3Ilno-43" style="edgeStyle=none;rounded=0;orthogonalLoop=1;jettySize=auto;html=1;exitX=0.5;exitY=0;exitDx=0;exitDy=0;entryX=0.5;entryY=1;entryDx=0;entryDy=0;" edge="1" parent="1" source="UbxJVFyxVuAruex3Ilno-42" target="UbxJVFyxVuAruex3Ilno-1">
          <mxGeometry relative="1" as="geometry" />
        </mxCell>
        <mxCell id="UbxJVFyxVuAruex3Ilno-42" value="&lt;font style=&quot;font-size: 24px&quot;&gt;Languages&lt;/font&gt;" style="ellipse;whiteSpace=wrap;html=1;" vertex="1" parent="1">
          <mxGeometry x="190" y="560" width="140" height="90" as="geometry" />
        </mxCell>
        <mxCell id="UbxJVFyxVuAruex3Ilno-45" style="edgeStyle=none;rounded=0;orthogonalLoop=1;jettySize=auto;html=1;exitX=0.5;exitY=0;exitDx=0;exitDy=0;entryX=0.75;entryY=1;entryDx=0;entryDy=0;" edge="1" parent="1" source="UbxJVFyxVuAruex3Ilno-44" target="UbxJVFyxVuAruex3Ilno-1">
          <mxGeometry relative="1" as="geometry">
            <mxPoint x="300" y="390" as="targetPoint" />
            <Array as="points">
              <mxPoint x="420" y="440" />
              <mxPoint x="305" y="440" />
            </Array>
          </mxGeometry>
        </mxCell>
        <mxCell id="UbxJVFyxVuAruex3Ilno-44" value="&lt;font style=&quot;font-size: 24px&quot;&gt;Publisher&lt;/font&gt;" style="ellipse;whiteSpace=wrap;html=1;" vertex="1" parent="1">
          <mxGeometry x="360" y="565" width="120" height="80" as="geometry" />
        </mxCell>
        <mxCell id="UbxJVFyxVuAruex3Ilno-49" style="edgeStyle=none;rounded=0;orthogonalLoop=1;jettySize=auto;html=1;exitX=0;exitY=0;exitDx=0;exitDy=0;entryX=1;entryY=1;entryDx=0;entryDy=0;" edge="1" parent="1" source="UbxJVFyxVuAruex3Ilno-46" target="UbxJVFyxVuAruex3Ilno-1">
          <mxGeometry relative="1" as="geometry" />
        </mxCell>
        <mxCell id="UbxJVFyxVuAruex3Ilno-46" value="&lt;font style=&quot;font-size: 24px&quot;&gt;Edition&lt;/font&gt;" style="ellipse;whiteSpace=wrap;html=1;" vertex="1" parent="1">
          <mxGeometry x="470" y="450" width="140" height="90" as="geometry" />
        </mxCell>
      </root>
    </mxGraphModel>
  </diagram>
</mxfile>
